<svg xmlns="http://www.w3.org/2000/svg" xmlns:c2pa="http://c2pa.org/manifest" viewBox="0 0 740 570" aria-label="Budowa stałego nagłówka IPv6 - 40 bajtów"><metadata/><style>.h{font-family:Arial,sans-serif;font-size:15px;font-weight:bold;fill:#0f172a}</style><rect width="740" height="570" fill="#ffffff"/><text class="h" x="20" y="24">Stały nagłówek IPv6 — zawsze dokładnie 40 bajtów (8 słów 32-bitowych)</text><line x1="60" y1="50" x2="700" y2="50" stroke="#94a3b8" stroke-width="1"/><line x1="60" y1="50" x2="60" y2="44" stroke="#94a3b8" stroke-width="1"/><line x1="80" y1="50" x2="80" y2="47" stroke="#94a3b8" stroke-width="1"/><line x1="100" y1="50" x2="100" y2="47" stroke="#94a3b8" stroke-width="1"/><line x1="120" y1="50" x2="120" y2="47" stroke="#94a3b8" stroke-width="1"/><line x1="140" y1="50" x2="140" y2="47" stroke="#94a3b8" stroke-width="1"/><line x1="160" y1="50" x2="160" y2="47" stroke="#94a3b8" stroke-width="1"/><line x1="180" y1="50" x2="180" y2="47" stroke="#94a3b8" stroke-width="1"/><line x1="200" y1="50" x2="200" y2="47" stroke="#94a3b8" stroke-width="1"/><line x1="220" y1="50" x2="220" y2="44" stroke="#94a3b8" stroke-width="1"/><line x1="240" y1="50" x2="240" y2="47" stroke="#94a3b8" stroke-width="1"/><line x1="260" y1="50" x2="260" y2="47" stroke="#94a3b8" stroke-width="1"/><line x1="280" y1="50" x2="280" y2="47" stroke="#94a3b8" stroke-width="1"/><line x1="300" y1="50" x2="300" y2="47" stroke="#94a3b8" stroke-width="1"/><line x1="320" y1="50" x2="320" y2="47" stroke="#94a3b8" stroke-width="1"/><line x1="340" y1="50" x2="340" y2="47" stroke="#94a3b8" stroke-width="1"/><line x1="360" y1="50" x2="360" y2="47" stroke="#94a3b8" stroke-width="1"/><line x1="380" y1="50" x2="380" y2="44" stroke="#94a3b8" stroke-width="1"/><line x1="400" y1="50" x2="400" y2="47" stroke="#94a3b8" stroke-width="1"/><line x1="420" y1="50" x2="420" y2="47" stroke="#94a3b8" stroke-width="1"/><line x1="440" y1="50" x2="440" y2="47" stroke="#94a3b8" stroke-width="1"/><line x1="460" y1="50" x2="460" y2="47" stroke="#94a3b8" stroke-width="1"/><line x1="480" y1="50" x2="480" y2="47" stroke="#94a3b8" stroke-width="1"/><line x1="500" y1="50" x2="500" y2="47" stroke="#94a3b8" stroke-width="1"/><line x1="520" y1="50" x2="520" y2="47" stroke="#94a3b8" stroke-width="1"/><line x1="540" y1="50" x2="540" y2="44" stroke="#94a3b8" stroke-width="1"/><line x1="560" y1="50" x2="560" y2="47" stroke="#94a3b8" stroke-width="1"/><line x1="580" y1="50" x2="580" y2="47" stroke="#94a3b8" stroke-width="1"/><line x1="600" y1="50" x2="600" y2="47" stroke="#94a3b8" stroke-width="1"/><line x1="620" y1="50" x2="620" y2="47" stroke="#94a3b8" stroke-width="1"/><line x1="640" y1="50" x2="640" y2="47" stroke="#94a3b8" stroke-width="1"/><line x1="660" y1="50" x2="660" y2="47" stroke="#94a3b8" stroke-width="1"/><line x1="680" y1="50" x2="680" y2="47" stroke="#94a3b8" stroke-width="1"/><line x1="700" y1="50" x2="700" y2="44" stroke="#94a3b8" stroke-width="1"/><text x="60" y="41" font-family="Arial,sans-serif" font-size="9" fill="#64748b" text-anchor="middle">0</text><text x="140" y="41" font-family="Arial,sans-serif" font-size="9" fill="#64748b" text-anchor="middle">4</text><text x="220" y="41" font-family="Arial,sans-serif" font-size="9" fill="#64748b" text-anchor="middle">8</text><text x="300" y="41" font-family="Arial,sans-serif" font-size="9" fill="#64748b" text-anchor="middle">12</text><text x="380" y="41" font-family="Arial,sans-serif" font-size="9" fill="#64748b" text-anchor="middle">16</text><text x="460" y="41" font-family="Arial,sans-serif" font-size="9" fill="#64748b" text-anchor="middle">20</text><text x="540" y="41" font-family="Arial,sans-serif" font-size="9" fill="#64748b" text-anchor="middle">24</text><text x="620" y="41" font-family="Arial,sans-serif" font-size="9" fill="#64748b" text-anchor="middle">28</text><rect x="60" y="50" width="80" height="48" fill="#e2e8f0" stroke="#1e293b" stroke-width="1.3"/><text x="100.0" y="72" font-family="Arial,sans-serif" font-size="10" text-anchor="middle" fill="#0f172a">Wersja</text><text x="100.0" y="87" font-family="Arial,sans-serif" font-size="9.5" text-anchor="middle" fill="#334155">=6, 4 b</text><rect x="140" y="50" width="160" height="48" fill="#bfdbfe" stroke="#1e293b" stroke-width="1.3"/><text x="220.0" y="72" font-family="Arial,sans-serif" font-size="12" text-anchor="middle" fill="#0f172a">Klasa ruchu (Traffic Class)</text><text x="220.0" y="87" font-family="Arial,sans-serif" font-size="9.5" text-anchor="middle" fill="#334155">8 b — DSCP+ECN</text><rect x="300" y="50" width="400" height="48" fill="#c4b5fd" stroke="#1e293b" stroke-width="1.3"/><text x="500.0" y="72" font-family="Arial,sans-serif" font-size="12" text-anchor="middle" fill="#0f172a">Etykieta przepływu (Flow Label)</text><text x="500.0" y="87" font-family="Arial,sans-serif" font-size="9.5" text-anchor="middle" fill="#334155">20 b</text><rect x="60" y="98" width="320" height="48" fill="#93c5fd" stroke="#1e293b" stroke-width="1.3"/><text x="220.0" y="120" font-family="Arial,sans-serif" font-size="12" text-anchor="middle" fill="#0f172a">Długość danych (Payload Length)</text><text x="220.0" y="135" font-family="Arial,sans-serif" font-size="9.5" text-anchor="middle" fill="#334155">16 b</text><rect x="380" y="98" width="160" height="48" fill="#5eead4" stroke="#1e293b" stroke-width="1.3"/><text x="460.0" y="120" font-family="Arial,sans-serif" font-size="12" text-anchor="middle" fill="#0f172a">Następny nagłówek (Next Header)</text><text x="460.0" y="135" font-family="Arial,sans-serif" font-size="9.5" text-anchor="middle" fill="#334155">8 b</text><rect x="540" y="98" width="160" height="48" fill="#86efac" stroke="#1e293b" stroke-width="1.3"/><text x="620.0" y="120" font-family="Arial,sans-serif" font-size="12" text-anchor="middle" fill="#0f172a">Limit przeskoków (Hop Limit)</text><text x="620.0" y="135" font-family="Arial,sans-serif" font-size="9.5" text-anchor="middle" fill="#334155">8 b</text><rect x="60" y="146" width="640" height="48" fill="#f9a8d4" stroke="#1e293b" stroke-width="1.3"/><text x="380.0" y="168" font-family="Arial,sans-serif" font-size="12" text-anchor="middle" fill="#0f172a">Adres źródłowy (Source Address) — bity 127–96</text><text x="380.0" y="183" font-family="Arial,sans-serif" font-size="9.5" text-anchor="middle" fill="#334155">32 b</text><rect x="60" y="194" width="640" height="48" fill="#f9a8d4" stroke="#1e293b" stroke-width="1.3"/><text x="380.0" y="216" font-family="Arial,sans-serif" font-size="12" text-anchor="middle" fill="#0f172a">Adres źródłowy — bity 95–64</text><text x="380.0" y="231" font-family="Arial,sans-serif" font-size="9.5" text-anchor="middle" fill="#334155">32 b</text><rect x="60" y="242" width="640" height="48" fill="#f9a8d4" stroke="#1e293b" stroke-width="1.3"/><text x="380.0" y="264" font-family="Arial,sans-serif" font-size="12" text-anchor="middle" fill="#0f172a">Adres źródłowy — bity 63–32</text><text x="380.0" y="279" font-family="Arial,sans-serif" font-size="9.5" text-anchor="middle" fill="#334155">32 b</text><rect x="60" y="290" width="640" height="48" fill="#f9a8d4" stroke="#1e293b" stroke-width="1.3"/><text x="380.0" y="312" font-family="Arial,sans-serif" font-size="12" text-anchor="middle" fill="#0f172a">Adres źródłowy — bity 31–0</text><text x="380.0" y="327" font-family="Arial,sans-serif" font-size="9.5" text-anchor="middle" fill="#334155">32 b</text><rect x="60" y="338" width="640" height="48" fill="#fbcfe8" stroke="#1e293b" stroke-width="1.3"/><text x="380.0" y="360" font-family="Arial,sans-serif" font-size="12" text-anchor="middle" fill="#0f172a">Adres docelowy (Destination Address) — bity 127–96</text><text x="380.0" y="375" font-family="Arial,sans-serif" font-size="9.5" text-anchor="middle" fill="#334155">32 b</text><rect x="60" y="386" width="640" height="48" fill="#fbcfe8" stroke="#1e293b" stroke-width="1.3"/><text x="380.0" y="408" font-family="Arial,sans-serif" font-size="12" text-anchor="middle" fill="#0f172a">Adres docelowy — bity 95–64</text><text x="380.0" y="423" font-family="Arial,sans-serif" font-size="9.5" text-anchor="middle" fill="#334155">32 b</text><rect x="60" y="434" width="640" height="48" fill="#fbcfe8" stroke="#1e293b" stroke-width="1.3"/><text x="380.0" y="456" font-family="Arial,sans-serif" font-size="12" text-anchor="middle" fill="#0f172a">Adres docelowy — bity 63–32</text><text x="380.0" y="471" font-family="Arial,sans-serif" font-size="9.5" text-anchor="middle" fill="#334155">32 b</text><rect x="60" y="482" width="640" height="48" fill="#fbcfe8" stroke="#1e293b" stroke-width="1.3"/><text x="380.0" y="504" font-family="Arial,sans-serif" font-size="12" text-anchor="middle" fill="#0f172a">Adres docelowy — bity 31–0</text><text x="380.0" y="519" font-family="Arial,sans-serif" font-size="9.5" text-anchor="middle" fill="#334155">32 b</text></svg>