<svg xmlns="http://www.w3.org/2000/svg" xmlns:c2pa="http://c2pa.org/manifest" viewBox="0 0 900 300" aria-label="Układ żył w złączu RJ-45: T568B i T568A"><metadata/><style>.pin{stroke:#1e293b;stroke-width:1.5}.s{font-family:Arial,sans-serif;font-size:11px;fill:#334155;text-anchor:middle}.h{font-family:Arial,sans-serif;font-size:14px;font-weight:bold;fill:#0f172a}.n{font-family:Arial,sans-serif;font-size:13px;font-weight:bold;fill:#0f172a;text-anchor:middle}.t{font-family:Arial,sans-serif;font-size:12px;fill:#0f172a}</style><rect width="900" height="300" fill="#ffffff"/><text class="n" x="195" y="38">pin 1</text><text class="n" x="285" y="38">pin 2</text><text class="n" x="375" y="38">pin 3</text><text class="n" x="465" y="38">pin 4</text><text class="n" x="555" y="38">pin 5</text><text class="n" x="645" y="38">pin 6</text><text class="n" x="735" y="38">pin 7</text><text class="n" x="825" y="38">pin 8</text><text class="h" x="10" y="78">T568B</text><rect class="pin" x="150" y="50" width="90" height="46" fill="#ffffff"/><rect x="151" y="66" width="88" height="14" fill="#f97316"/><text class="s" x="195" y="112">biało-pomarańcz.</text><rect class="pin" x="240" y="50" width="90" height="46" fill="#f97316"/><text class="s" x="285" y="112">pomarańcz.</text><rect class="pin" x="330" y="50" width="90" height="46" fill="#ffffff"/><rect x="331" y="66" width="88" height="14" fill="#16a34a"/><text class="s" x="375" y="112">biało-zielony</text><rect class="pin" x="420" y="50" width="90" height="46" fill="#2563eb"/><text class="s" x="465" y="112">niebiesk.</text><rect class="pin" x="510" y="50" width="90" height="46" fill="#ffffff"/><rect x="511" y="66" width="88" height="14" fill="#2563eb"/><text class="s" x="555" y="112">biało-niebiesk.</text><rect class="pin" x="600" y="50" width="90" height="46" fill="#16a34a"/><text class="s" x="645" y="112">zielony</text><rect class="pin" x="690" y="50" width="90" height="46" fill="#ffffff"/><rect x="691" y="66" width="88" height="14" fill="#92400e"/><text class="s" x="735" y="112">biało-brązowy</text><rect class="pin" x="780" y="50" width="90" height="46" fill="#92400e"/><text class="s" x="825" y="112">brązowy</text><text class="h" x="10" y="168">T568A</text><rect class="pin" x="150" y="140" width="90" height="46" fill="#ffffff"/><rect x="151" y="156" width="88" height="14" fill="#16a34a"/><text class="s" x="195" y="202">biało-zielony</text><rect class="pin" x="240" y="140" width="90" height="46" fill="#16a34a"/><text class="s" x="285" y="202">zielony</text><rect class="pin" x="330" y="140" width="90" height="46" fill="#ffffff"/><rect x="331" y="156" width="88" height="14" fill="#f97316"/><text class="s" x="375" y="202">biało-pomarańcz.</text><rect class="pin" x="420" y="140" width="90" height="46" fill="#2563eb"/><text class="s" x="465" y="202">niebiesk.</text><rect class="pin" x="510" y="140" width="90" height="46" fill="#ffffff"/><rect x="511" y="156" width="88" height="14" fill="#2563eb"/><text class="s" x="555" y="202">biało-niebiesk.</text><rect class="pin" x="600" y="140" width="90" height="46" fill="#f97316"/><text class="s" x="645" y="202">pomarańcz.</text><rect class="pin" x="690" y="140" width="90" height="46" fill="#ffffff"/><rect x="691" y="156" width="88" height="14" fill="#92400e"/><text class="s" x="735" y="202">biało-brązowy</text><rect class="pin" x="780" y="140" width="90" height="46" fill="#92400e"/><text class="s" x="825" y="202">brązowy</text><text class="h" x="10" y="240">10/100BASE-TX</text><text class="n" x="195" y="240">TX+</text><text class="n" x="285" y="240">TX−</text><text class="n" x="375" y="240">RX+</text><text class="n" x="465" y="240">—</text><text class="n" x="555" y="240">—</text><text class="n" x="645" y="240">RX−</text><text class="n" x="735" y="240">—</text><text class="n" x="825" y="240">—</text><text class="h" x="10" y="272">1000BASE-T</text><text class="t" x="150" y="272">wszystkie 4 pary pracują jednocześnie w obu kierunkach (BI_DA … BI_DD)</text></svg>