<svg xmlns="http://www.w3.org/2000/svg" xmlns:c2pa="http://c2pa.org/manifest" viewBox="0 0 900 420" font-family="Consolas, 'Courier New', monospace"><metadata/><rect x="0" y="0" width="900" height="420" fill="#0f172a" rx="12"/><text x="450" y="38" text-anchor="middle" fill="#f8fafc" font-size="22" font-weight="bold">Routing żądań przez wirtualne hosty</text><g transform="translate(40,80)"><rect x="0" y="0" width="180" height="44" fill="#1e293b" stroke="#3b82f6" rx="6"/><text x="90" y="27" text-anchor="middle" fill="#93c5fd" font-size="13">sklep.przyklad.pl</text><rect x="0" y="70" width="180" height="44" fill="#1e293b" stroke="#22c55e" rx="6"/><text x="90" y="97" text-anchor="middle" fill="#86efac" font-size="13">blog.przyklad.pl</text><rect x="0" y="140" width="180" height="44" fill="#1e293b" stroke="#f59e0b" rx="6"/><text x="90" y="167" text-anchor="middle" fill="#fcd34d" font-size="13">api.przyklad.pl</text></g><line x1="220" y1="102" x2="330" y2="180" stroke="#3b82f6" stroke-width="2"/><line x1="220" y1="192" x2="330" y2="200" stroke="#22c55e" stroke-width="2"/><line x1="220" y1="262" x2="330" y2="220" stroke="#f59e0b" stroke-width="2"/><g transform="translate(330,130)"><rect x="0" y="0" width="230" height="180" fill="#1e293b" stroke="#64748b" stroke-width="2" rx="10"/><text x="115" y="30" text-anchor="middle" fill="#e2e8f0" font-size="15" font-weight="bold">Serwer HTTP</text><text x="115" y="50" text-anchor="middle" fill="#94a3b8" font-size="12">jeden adres IP : 443</text><rect x="20" y="65" width="190" height="34" fill="#020617" stroke="#334155" rx="4"/><text x="115" y="87" text-anchor="middle" fill="#cbd5e1" font-size="12">nagłówek Host: / SNI</text><rect x="20" y="110" width="190" height="34" fill="#020617" stroke="#334155" rx="4"/><text x="115" y="132" text-anchor="middle" fill="#cbd5e1" font-size="12">dopasowanie ServerName</text><rect x="20" y="150" width="190" height="20" fill="none"/></g><line x1="560" y1="180" x2="650" y2="100" stroke="#3b82f6" stroke-width="2"/><line x1="560" y1="220" x2="650" y2="220" stroke="#22c55e" stroke-width="2"/><line x1="560" y1="260" x2="650" y2="330" stroke="#f59e0b" stroke-width="2"/><g transform="translate(650,75)"><rect x="0" y="0" width="210" height="50" fill="#1d4ed8" opacity="0.2" stroke="#3b82f6" rx="6"/><text x="105" y="20" text-anchor="middle" fill="#93c5fd" font-size="12">/var/www/sklep</text><text x="105" y="38" text-anchor="middle" fill="#94a3b8" font-size="10">cert: sklep.pl.crt</text></g><g transform="translate(650,195)"><rect x="0" y="0" width="210" height="50" fill="#15803d" opacity="0.2" stroke="#22c55e" rx="6"/><text x="105" y="20" text-anchor="middle" fill="#86efac" font-size="12">/var/www/blog</text><text x="105" y="38" text-anchor="middle" fill="#94a3b8" font-size="10">cert: blog.pl.crt</text></g><g transform="translate(650,305)"><rect x="0" y="0" width="210" height="50" fill="#b45309" opacity="0.2" stroke="#f59e0b" rx="6"/><text x="105" y="20" text-anchor="middle" fill="#fcd34d" font-size="12">/var/www/api</text><text x="105" y="38" text-anchor="middle" fill="#94a3b8" font-size="10">cert: api.pl.crt</text></g><text x="450" y="400" text-anchor="middle" fill="#94a3b8" font-size="12">Apache: &lt;VirtualHost *:443&gt; + ServerName | Nginx: server { listen 443 ssl; server_name ... }</text></svg>